<svg xmlns="http://www.w3.org/2000/svg" width="44.019" height="51.058" viewBox="0 0 44.019 51.058">
  <g id="Group_8" transform="translate(-5493.493 -5208.807)" style="mix-blend-mode: exclusion;isolation: isolate">
    <path id="Path_619" d="M8768.049,330.769v9.562s23.014-.324,26.5,0,4.148,1.495,4.553,2.143a7.661,7.661,0,0,1,.6,4.473,3.865,3.865,0,0,1-1.829,2.541c-1.054.648-13.105,2.745-13.105,2.745l-16.715,3.494v9.886l25.814-5.153s2.795-.611,4.006.24a13.256,13.256,0,0,1,2.018,1.746,5.088,5.088,0,0,1,1,2.553,8.807,8.807,0,0,1-.175,2.794,5.313,5.313,0,0,1-1.246,2.2,5.069,5.069,0,0,1-2.6,1.484c-1.223.284-11.742.175-11.742.175v-6.2l-10.8,2.226v14.142l22.676-.087s5.217-.284,8.1-2.423,3.84-3.274,4.865-4.954a11.984,11.984,0,0,0,1.865-4.553,16.424,16.424,0,0,0-.184-6.469,11.279,11.279,0,0,0-2.51-5.151,27.044,27.044,0,0,0-4.061-3.339,11.921,11.921,0,0,0,2.25-1.921,20.533,20.533,0,0,0,2.509-4.081,12.072,12.072,0,0,0,.9-4.212,14.385,14.385,0,0,0-.5-4.649,17.105,17.105,0,0,0-1.963-3.557,24.921,24.921,0,0,0-2.99-2.772,22.92,22.92,0,0,0-3.623-1.9,25.784,25.784,0,0,0-3.95-.917Z" transform="translate(-3274.556 4878.038)" fill="#4aea4a"/>
    <path id="Path_620" d="M8813.82,423.792v10.879l10.878-2.285v-8.594Z" transform="translate(-3314.512 4797.981)" fill="#4aea4a"/>
  </g>
</svg>
